<?xml version="1.0" encoding="utf-8" ?><svg xmlns="http://www.w3.org/2000/svg" xmlns:xlink="http://www.w3.org/1999/xlink" width="1024" height="1024" viewBox="0 0 1024 1024"><path fill="#F6F6F5" d="M0 0L1024 0L1024 1024L0 1024L0 0Z"/><path fill="#0E0E0D" d="M577.947 88.36C586.768 85.6834 597.448 85.1384 606.603 84.3041C653.889 79.9949 700.123 84.3547 746.173 95.6382C754.096 97.5796 765.666 99.8915 772.668 103.798C772.827 103.886 772.976 103.99 773.13 104.086C825.096 117.083 874.791 153.019 911.346 191.197C925.035 205.493 937.12 220.889 949.922 235.931C912.125 264.246 876.292 295.094 838.224 323.117C790.958 266.469 750.186 232.621 674.239 225.813C645.921 223.274 611.801 227.288 586.669 241.335C581.486 248.003 576.755 255.075 571.827 261.938L544.633 299.523C529.036 320.896 513.635 342.412 498.432 364.066C481.746 387.868 462.724 412.797 453.112 440.507C444.123 466.421 442.978 496.424 446.388 523.518C447.94 535.854 451.296 547.245 456.481 558.54C464.314 575.602 474.311 591.976 483.578 608.286C501.791 640.116 520.348 671.748 539.247 703.176L554.299 728.326C556.678 732.293 559.023 737.428 562.152 740.771C562.732 744.627 570.059 755.224 572.374 759.091C590.681 789.659 609.356 822.412 631.805 850.099C639.96 860.157 649.085 869.444 659.513 877.163C680.298 892.551 706.828 901.232 732.605 902.787C740.791 903.281 749.027 902.87 757.208 902.451C745.752 906.198 733.557 908.445 721.699 910.502C677.071 918.245 630.681 919.952 585.908 912.258C579.244 911.113 568.796 909.795 562.897 907.192C518.306 897.21 476.531 877.33 440.662 849.021C411.284 825.651 389.291 797.283 366.186 768.108C347.483 744.596 329.041 720.878 310.863 696.957C279.478 655.945 247.152 615.224 218.307 572.374C213.554 577.2 208.535 581.726 203.526 586.281C201.901 631.269 202.723 676.53 202.637 721.555C202.515 785.016 201.991 848.548 202.805 912.003L75.0055 912.004L74.9869 776.453C74.9943 755.664 75.5278 734.782 74.9463 714.005C73.6489 689.921 74.5503 665.377 74.5483 641.249L74.57 512.574L74.7227 343.53L74.5388 88.4996C117.061 89.0926 159.588 89.2755 202.114 89.0483L202.055 387.203L353.974 237.618L403.769 188.462C421.934 170.56 440.091 152.213 461.084 137.591C496.472 112.941 535.193 95.2178 577.947 88.36Z"/><path fill="#CFA65A" d="M577.947 88.36C586.768 85.6834 597.448 85.1384 606.603 84.3041C653.889 79.9949 700.123 84.3547 746.173 95.6382C754.096 97.5796 765.666 99.8915 772.668 103.798C772.827 103.886 772.976 103.99 773.13 104.086C825.096 117.083 874.791 153.019 911.346 191.197C925.035 205.493 937.12 220.889 949.922 235.931C912.125 264.246 876.292 295.094 838.224 323.117C790.958 266.469 750.186 232.621 674.239 225.813C645.921 223.274 611.801 227.288 586.669 241.335C581.486 248.003 576.755 255.075 571.827 261.938L544.633 299.523C529.036 320.896 513.635 342.412 498.432 364.066C481.746 387.868 462.724 412.797 453.112 440.507C444.123 466.421 442.978 496.424 446.388 523.518C447.94 535.854 451.296 547.245 456.481 558.54C464.314 575.602 474.311 591.976 483.578 608.286C501.791 640.116 520.348 671.748 539.247 703.176L554.299 728.326C556.678 732.293 559.023 737.428 562.152 740.771C562.732 744.627 570.059 755.224 572.374 759.091C590.681 789.659 609.356 822.412 631.805 850.099C639.96 860.157 649.085 869.444 659.513 877.163C680.298 892.551 706.828 901.232 732.605 902.787C740.791 903.281 749.027 902.87 757.208 902.451C745.752 906.198 733.557 908.445 721.699 910.502C677.071 918.245 630.681 919.952 585.908 912.258C579.244 911.113 568.796 909.795 562.897 907.192C562.006 905.317 556.611 902.634 554.78 901.363C546.822 895.837 539.792 889.934 533.105 882.918C519.095 868.219 508.596 850.61 498.639 833.035C474.527 790.479 453.528 746.376 431.59 702.688L357.369 557.504C341.561 526.514 326.219 495.082 308.895 464.907C355.647 393.483 401.285 321.221 446.908 249.067L488.848 183.075C502.635 161.489 516.027 139.232 533.554 120.409C542.358 110.955 552.472 102.474 563.645 95.9573C567.986 93.4253 573.305 91.7037 577.331 88.814C577.538 88.6652 577.742 88.5114 577.947 88.36Z"/><path fill="#0E0E0D" d="M586.669 241.335C586.705 241.029 586.704 240.717 586.777 240.418C587.35 238.085 629.203 179.166 633.936 172.708C638.475 166.428 643.233 160.308 648.2 154.361C656.472 144.597 665.173 135.394 675.349 127.562C696.963 111.254 723.247 102.328 750.322 102.101C758.004 102.1 765.535 103.07 773.13 104.086C825.096 117.083 874.791 153.019 911.346 191.197C925.035 205.493 937.12 220.889 949.922 235.931C912.125 264.246 876.292 295.094 838.224 323.117C790.958 266.469 750.186 232.621 674.239 225.813C645.921 223.274 611.801 227.288 586.669 241.335Z"/><path fill="#CFA65A" d="M74.57 512.574C88.7877 499.747 103.055 486.758 116.789 473.417C130.726 459.878 144.258 445.948 158.267 432.471C167.127 423.842 176.1 415.329 185.184 406.935C191.071 401.552 197.272 396.423 203.017 390.905C201.758 416.265 202.035 441.841 202.042 467.226L202.054 583.995C198.971 588.63 194.185 592.691 190.286 596.665L167.356 619.934L74.9463 714.005C73.6489 689.921 74.5503 665.377 74.5483 641.249L74.57 512.574Z"/><path fill="#0E0E0D" d="M635.884 442.577L967.014 444.023C969.17 515.992 967.995 588.24 968.051 660.237L968.143 708.283C968.167 717.24 969.461 732.172 967.198 740.326C961.984 759.109 940.318 785.298 926.773 799.72C885.263 843.918 817.36 890.2 757.208 902.451C749.027 902.87 740.791 903.281 732.605 902.787C706.828 901.232 680.298 892.551 659.513 877.163C649.085 869.444 639.96 860.157 631.805 850.099C609.356 822.412 590.681 789.659 572.374 759.091C570.059 755.224 562.732 744.627 562.152 740.771C602.876 768.673 667.274 772.05 714.697 763.183C721.835 761.848 729.135 760.198 735.952 757.687C739.846 754.581 744.706 752.086 748.926 749.405C755.816 745.051 762.467 740.33 768.852 735.264C779.088 727.138 789.312 717.806 797.545 707.64C802.4 701.645 806.444 695.103 810.417 688.508C831.161 654.07 841.533 615.187 846.132 575.47C815.706 574.428 785.123 575.527 754.683 575.929L637.068 576.449L635.884 442.577Z"/><path fill="#CFA65A" d="M846.132 575.47C884.516 576.375 922.908 576.895 961.301 577.031C930.569 642.413 817.906 728.905 751.062 753.083C746.187 754.847 741.058 756.773 735.952 757.687C739.846 754.581 744.706 752.086 748.926 749.405C755.816 745.051 762.467 740.33 768.852 735.264C779.088 727.138 789.312 717.806 797.545 707.64C802.4 701.645 806.444 695.103 810.417 688.508C831.161 654.07 841.533 615.187 846.132 575.47Z"/></svg>